<svg xmlns="http://www.w3.org/2000/svg" xmlns:xlink="http://www.w3.org/1999/xlink" width="695" height="38" viewBox="0 0 695 38"><rect width="694.5300000000002" height="38.1" fill="#ff6600"></rect><path stroke="none" fill="white" d="M1.56 8.40C1.05 8.40 0.90 8.88 0.90 9.24C0.90 9.75 1.23 9.84 1.59 9.87C3.15 9.96 3.57 9.87 3.57 10.50C3.57 10.59 3.54 10.74 3.54 10.92L3.54 26.52C3.54 27.03 3.45 27.33 2.91 27.36C0.81 27.51 0.39 27.39 0.39 28.02C0.39 28.11 0.39 28.20 0.42 28.29C0.45 28.62 0.48 28.98 0.93 28.98C1.05 28.98 2.73 28.80 4.77 28.80C6.81 28.80 8.46 28.98 8.58 28.98C9.09 28.98 9.18 28.47 9.18 28.11C9.18 27.39 8.49 27.54 6.81 27.42C6.27 27.36 6.27 26.97 6.27 26.67L6.27 10.47C6.27 10.23 6.33 9.99 6.75 9.96C8.28 9.81 8.64 9.90 8.64 9.00C8.64 8.52 8.37 8.43 8.13 8.43C7.83 8.43 6.90 8.55 5.01 8.55C3.15 8.55 1.68 8.40 1.56 8.40ZM13.92 17.49C13.92 17.46 13.95 17.37 13.95 17.31L13.95 16.14C13.95 15.90 13.86 15.69 13.59 15.69C13.47 15.69 13.38 15.75 13.29 15.81C10.50 17.31 10.44 17.28 10.44 17.52L10.44 17.55C10.44 17.67 10.53 17.76 10.62 17.85C11.97 18.87 11.97 18.81 11.97 19.53L11.97 26.70C11.97 27.21 11.94 27.60 11.19 27.72C10.26 27.87 10.02 27.84 10.02 28.44C10.02 28.86 10.32 28.98 10.50 28.98C10.59 28.98 11.70 28.80 13.14 28.80C14.61 28.80 15.84 29.01 15.93 29.01C16.20 29.01 16.32 28.77 16.32 28.47C16.32 27.81 15.96 27.87 14.70 27.66C14.07 27.57 14.04 27.15 14.04 26.82L14.04 26.73L14.04 19.62C14.04 19.50 14.04 19.35 14.07 19.23C14.19 18.69 15.42 17.28 17.16 17.28C17.85 17.28 19.50 17.55 20.16 19.08C20.52 19.98 20.55 21.78 20.55 22.32L20.55 26.97C20.55 27.48 20.46 27.63 20.07 27.69C18.87 27.90 18.51 27.84 18.51 28.38C18.51 28.68 18.57 28.98 18.93 28.98C18.99 28.98 20.07 28.80 21.39 28.80C22.89 28.80 23.64 28.98 23.91 28.98C24.09 28.98 24.36 28.89 24.36 28.38C24.36 28.17 24.33 27.90 23.94 27.84C22.89 27.69 22.50 27.75 22.50 26.91L22.50 26.85C22.50 22.71 22.53 22.17 22.53 21.66C22.53 21.15 22.53 20.64 22.47 20.13C22.17 16.41 19.56 15.81 18.21 15.81L18.15 15.81C15.57 15.84 14.16 17.61 14.04 17.61L14.01 17.61C13.98 17.61 13.92 17.58 13.92 17.49ZM25.59 19.53C25.59 21.00 26.49 22.50 28.92 23.19C29.88 23.46 32.52 23.76 32.52 25.74C32.52 26.94 31.44 27.75 30.09 27.75C28.35 27.75 26.97 26.61 26.67 25.98C26.25 25.14 26.73 24.12 25.98 24.12C25.53 24.12 25.44 24.27 25.44 25.05C25.44 25.47 25.47 26.04 25.47 26.85C25.47 27.30 25.53 27.54 25.83 27.87C26.70 28.89 28.59 29.37 29.97 29.37C32.94 29.37 34.53 27.24 34.53 25.32C34.53 24.84 34.41 23.85 33.63 22.95C32.52 21.66 31.11 21.57 29.58 21.15C27.36 20.52 27.21 19.41 27.21 18.99C27.21 18.03 28.08 17.40 29.10 17.40C30.09 17.40 31.17 18.03 31.56 18.57C31.98 19.17 31.89 20.04 32.52 20.04C32.76 20.04 33.21 19.95 33.21 19.56C33.21 19.44 32.82 17.46 32.64 16.41C32.61 16.26 32.52 15.84 32.16 15.84C31.80 15.84 31.68 16.14 31.41 16.14C31.26 16.14 30.81 15.99 29.91 15.99C27.21 15.99 25.59 17.73 25.59 19.53ZM36 17.85L36.96 17.85C37.14 17.85 37.17 17.97 37.17 18.12C37.17 18.78 37.05 23.43 37.05 24.75C37.05 25.08 37.05 25.38 37.08 25.71C37.29 28.53 38.91 29.37 40.11 29.37C41.76 29.37 43.23 27.87 44.28 26.67C44.34 26.58 44.49 26.40 44.49 26.16C44.49 25.89 44.28 25.62 43.95 25.62C43.29 25.62 42.12 27.42 40.68 27.42C39.42 27.42 39.15 26.25 39.15 25.20C39.15 24.48 39.15 23.79 39.18 18.18C39.18 17.97 39.27 17.91 39.48 17.91L42.99 17.91C43.26 17.91 43.41 17.88 43.53 17.76C43.68 17.58 43.80 17.07 43.80 16.89C43.80 16.32 43.29 16.32 43.02 16.32C42.93 16.32 42.87 16.29 42.78 16.29L40.08 16.29C39.72 16.29 39.48 16.20 39.48 15.69C39.48 15.27 39.51 14.01 39.51 13.59C39.51 13.20 39.30 13.11 39.12 13.11C38.79 13.11 38.61 13.50 38.52 13.65C36.90 16.41 35.40 16.95 35.40 17.46C35.40 17.82 35.73 17.85 36 17.85ZM45.66 18.45C45.66 19.14 46.29 19.53 46.86 19.53C47.25 19.53 47.43 19.32 47.52 19.20C47.58 19.08 48.39 17.19 50.10 17.19C50.88 17.19 51.48 17.61 51.84 18C52.44 18.69 52.56 19.44 52.56 20.40L52.56 21.48C52.56 21.69 52.53 21.84 52.32 21.90C52.26 21.93 48.66 22.05 47.04 23.34C46.32 23.91 45.78 24.87 45.78 26.01L45.78 26.04C45.78 27.87 47.13 29.40 49.20 29.40C50.31 29.40 51.30 29.01 51.99 28.56C52.74 28.05 52.65 27.90 52.80 27.90C52.83 27.90 52.83 27.93 52.86 27.93C52.92 27.96 53.64 29.16 54.99 29.16C56.55 29.16 57.30 27.48 57.30 26.79C57.30 26.52 57.15 26.40 57.03 26.40C56.58 26.40 56.64 27.39 55.71 27.39C55.41 27.39 54.69 27.24 54.69 26.07L54.69 20.16C54.69 19.80 54.66 19.44 54.63 19.08C54.33 16.14 51.42 15.78 50.28 15.78C47.79 15.78 45.66 17.37 45.66 18.45ZM49.92 27.75C49.53 27.75 48.99 27.69 48.63 27.36C48.15 26.94 48 26.19 48 25.71C48 24.96 48.33 24.42 48.72 24.09C49.71 23.16 51.75 23.01 52.29 23.01C52.56 23.01 52.59 23.16 52.59 23.88L52.59 25.11L52.59 25.83C52.59 26.10 52.56 26.31 52.41 26.52C52.26 26.73 51.39 27.75 49.92 27.75ZM64.32 28.38C64.32 27.99 64.17 27.84 63.81 27.78C62.61 27.57 62.28 27.63 62.28 26.67L62.28 7.68C62.28 7.41 62.22 7.11 61.86 7.11C61.71 7.11 61.59 7.17 61.50 7.23C57.87 9.12 57.81 9.06 57.81 9.30L57.81 9.33C57.81 9.66 58.20 9.78 59.40 10.50C59.91 10.80 60.09 10.80 60.09 11.25L60.09 26.52C60.09 27.12 60.03 27.57 59.25 27.66C58.23 27.78 58.02 27.75 58.02 28.32L58.02 28.41C58.02 28.62 58.05 28.95 58.44 28.95C58.53 28.95 59.70 28.80 61.14 28.80C62.64 28.80 63.87 28.98 63.96 28.98C64.26 28.98 64.32 28.74 64.32 28.38ZM71.49 28.38C71.49 27.99 71.34 27.84 70.98 27.78C69.78 27.57 69.45 27.63 69.45 26.67L69.45 7.68C69.45 7.41 69.39 7.11 69.03 7.11C68.88 7.11 68.76 7.17 68.67 7.23C65.04 9.12 64.98 9.06 64.98 9.30L64.98 9.33C64.98 9.66 65.37 9.78 66.57 10.50C67.08 10.80 67.26 10.80 67.26 11.25L67.26 26.52C67.26 27.12 67.20 27.57 66.42 27.66C65.40 27.78 65.19 27.75 65.19 28.32L65.19 28.41C65.19 28.62 65.22 28.95 65.61 28.95C65.70 28.95 66.87 28.80 68.31 28.80C69.81 28.80 71.04 28.98 71.13 28.98C71.43 28.98 71.49 28.74 71.49 28.38ZM72.69 18.45C72.69 19.14 73.32 19.53 73.89 19.53C74.28 19.53 74.46 19.32 74.55 19.20C74.61 19.08 75.42 17.19 77.13 17.19C77.91 17.19 78.51 17.61 78.87 18C79.47 18.69 79.59 19.44 79.59 20.40L79.59 21.48C79.59 21.69 79.56 21.84 79.35 21.90C79.29 21.93 75.69 22.05 74.07 23.34C73.35 23.91 72.81 24.87 72.81 26.01L72.81 26.04C72.81 27.87 74.16 29.40 76.23 29.40C77.34 29.40 78.33 29.01 79.02 28.56C79.77 28.05 79.68 27.90 79.83 27.90C79.86 27.90 79.86 27.93 79.89 27.93C79.95 27.96 80.67 29.16 82.02 29.16C83.58 29.16 84.33 27.48 84.33 26.79C84.33 26.52 84.18 26.40 84.06 26.40C83.61 26.40 83.67 27.39 82.74 27.39C82.44 27.39 81.72 27.24 81.72 26.07L81.72 20.16C81.72 19.80 81.69 19.44 81.66 19.08C81.36 16.14 78.45 15.78 77.31 15.78C74.82 15.78 72.69 17.37 72.69 18.45ZM76.95 27.75C76.56 27.75 76.02 27.69 75.66 27.36C75.18 26.94 75.03 26.19 75.03 25.71C75.03 24.96 75.36 24.42 75.75 24.09C76.74 23.16 78.78 23.01 79.32 23.01C79.59 23.01 79.62 23.16 79.62 23.88L79.62 25.11L79.62 25.83C79.62 26.10 79.59 26.31 79.44 26.52C79.29 26.73 78.42 27.75 76.95 27.75ZM85.71 17.85L86.67 17.85C86.85 17.85 86.88 17.97 86.88 18.12C86.88 18.78 86.76 23.43 86.76 24.75C86.76 25.08 86.76 25.38 86.79 25.71C87.00 28.53 88.62 29.37 89.82 29.37C91.47 29.37 92.94 27.87 93.99 26.67C94.05 26.58 94.20 26.40 94.20 26.16C94.20 25.89 93.99 25.62 93.66 25.62C93.00 25.62 91.83 27.42 90.39 27.42C89.13 27.42 88.86 26.25 88.86 25.20C88.86 24.48 88.86 23.79 88.89 18.18C88.89 17.97 88.98 17.91 89.19 17.91L92.70 17.91C92.97 17.91 93.12 17.88 93.24 17.76C93.39 17.58 93.51 17.07 93.51 16.89C93.51 16.32 93.00 16.32 92.73 16.32C92.64 16.32 92.58 16.29 92.49 16.29L89.79 16.29C89.43 16.29 89.19 16.20 89.19 15.69C89.19 15.27 89.22 14.01 89.22 13.59C89.22 13.20 89.01 13.11 88.83 13.11C88.50 13.11 88.32 13.50 88.23 13.65C86.61 16.41 85.11 16.95 85.11 17.46C85.11 17.82 85.44 17.85 85.71 17.85ZM97.62 10.26C97.62 11.07 98.25 11.67 99.03 11.67C99.81 11.67 100.50 11.04 100.50 10.23C100.50 9.48 99.84 8.85 99.06 8.85C98.28 8.85 97.62 9.48 97.62 10.26ZM97.32 25.17L97.32 26.58C97.32 27.12 97.26 27.54 96.51 27.66C95.16 27.84 95.04 27.78 95.04 28.47C95.04 28.77 95.19 28.98 95.49 28.98C95.58 28.98 96.75 28.80 98.25 28.80C99.72 28.80 100.92 28.98 101.01 28.98C101.34 28.98 101.37 28.56 101.37 28.32C101.37 27.81 101.01 27.84 100.02 27.69C99.36 27.60 99.33 27.51 99.33 23.85L99.33 22.86C99.33 19.20 99.51 16.29 99.51 16.05C99.51 15.69 99.27 15.57 99.09 15.57L99.06 15.57C98.91 15.57 98.88 15.63 95.76 17.13C95.43 17.28 94.95 17.40 94.95 17.76C94.95 18 95.16 18.09 95.31 18.15C97.23 18.93 97.35 18.90 97.35 19.38C97.35 19.95 97.32 21.69 97.32 25.17ZM102.42 22.68C102.42 26.37 104.97 29.37 108.78 29.37C112.14 29.37 115.17 26.97 115.17 22.68C115.17 18.66 112.47 15.84 108.90 15.84C105.54 15.84 102.42 18.51 102.42 22.68ZM108.87 27.90C106.41 27.90 104.76 25.65 104.76 22.53C104.76 18.51 107.13 17.25 108.69 17.25C110.97 17.25 113.13 19.59 113.13 22.80C113.13 25.47 111.42 27.90 108.87 27.90ZM120.03 17.49C120.03 17.46 120.06 17.37 120.06 17.31L120.06 16.14C120.06 15.90 119.97 15.69 119.70 15.69C119.58 15.69 119.49 15.75 119.40 15.81C116.61 17.31 116.55 17.28 116.55 17.52L116.55 17.55C116.55 17.67 116.64 17.76 116.73 17.85C118.08 18.87 118.08 18.81 118.08 19.53L118.08 26.70C118.08 27.21 118.05 27.60 117.30 27.72C116.37 27.87 116.13 27.84 116.13 28.44C116.13 28.86 116.43 28.98 116.61 28.98C116.70 28.98 117.81 28.80 119.25 28.80C120.72 28.80 121.95 29.01 122.04 29.01C122.31 29.01 122.43 28.77 122.43 28.47C122.43 27.81 122.07 27.87 120.81 27.66C120.18 27.57 120.15 27.15 120.15 26.82L120.15 26.73L120.15 19.62C120.15 19.50 120.15 19.35 120.18 19.23C120.30 18.69 121.53 17.28 123.27 17.28C123.96 17.28 125.61 17.55 126.27 19.08C126.63 19.98 126.66 21.78 126.66 22.32L126.66 26.97C126.66 27.48 126.57 27.63 126.18 27.69C124.98 27.90 124.62 27.84 124.62 28.38C124.62 28.68 124.68 28.98 125.04 28.98C125.10 28.98 126.18 28.80 127.50 28.80C129 28.80 129.75 28.98 130.02 28.98C130.20 28.98 130.47 28.89 130.47 28.38C130.47 28.17 130.44 27.90 130.05 27.84C129 27.69 128.61 27.75 128.61 26.91L128.61 26.85C128.61 22.71 128.64 22.17 128.64 21.66C128.64 21.15 128.64 20.64 128.58 20.13C128.28 16.41 125.67 15.81 124.32 15.81L124.26 15.81C121.68 15.84 120.27 17.61 120.15 17.61L120.12 17.61C120.09 17.61 120.03 17.58 120.03 17.49ZM139.83 8.40C139.32 8.40 139.17 8.88 139.17 9.24C139.17 9.75 139.50 9.84 139.86 9.87C141.42 9.96 141.84 9.87 141.84 10.50C141.84 10.59 141.81 10.74 141.81 10.92L141.81 26.52C141.81 27.03 141.72 27.33 141.18 27.36C139.08 27.51 138.66 27.39 138.66 28.02C138.66 28.11 138.66 28.20 138.69 28.29C138.72 28.62 138.75 28.98 139.20 28.98C139.32 28.98 141.00 28.80 143.04 28.80C145.08 28.80 146.73 28.98 146.85 28.98C147.36 28.98 147.45 28.47 147.45 28.11C147.45 27.39 146.76 27.54 145.08 27.42C144.54 27.36 144.54 26.97 144.54 26.67L144.54 10.47C144.54 10.23 144.60 9.99 145.02 9.96C146.55 9.81 146.91 9.90 146.91 9.00C146.91 8.52 146.64 8.43 146.40 8.43C146.10 8.43 145.17 8.55 143.28 8.55C141.42 8.55 139.95 8.40 139.83 8.40ZM152.19 17.49C152.19 17.46 152.22 17.37 152.22 17.31L152.22 16.14C152.22 15.90 152.13 15.69 151.86 15.69C151.74 15.69 151.65 15.75 151.56 15.81C148.77 17.31 148.71 17.28 148.71 17.52L148.71 17.55C148.71 17.67 148.80 17.76 148.89 17.85C150.24 18.87 150.24 18.81 150.24 19.53L150.24 26.70C150.24 27.21 150.21 27.60 149.46 27.72C148.53 27.87 148.29 27.84 148.29 28.44C148.29 28.86 148.59 28.98 148.77 28.98C148.86 28.98 149.97 28.80 151.41 28.80C152.88 28.80 154.11 29.01 154.20 29.01C154.47 29.01 154.59 28.77 154.59 28.47C154.59 27.81 154.23 27.87 152.97 27.66C152.34 27.57 152.31 27.15 152.31 26.82L152.31 26.73L152.31 19.62C152.31 19.50 152.31 19.35 152.34 19.23C152.46 18.69 153.69 17.28 155.43 17.28C156.12 17.28 157.77 17.55 158.43 19.08C158.79 19.98 158.82 21.78 158.82 22.32L158.82 26.97C158.82 27.48 158.73 27.63 158.34 27.69C157.14 27.90 156.78 27.84 156.78 28.38C156.78 28.68 156.84 28.98 157.20 28.98C157.26 28.98 158.34 28.80 159.66 28.80C161.16 28.80 161.91 28.98 162.18 28.98C162.36 28.98 162.63 28.89 162.63 28.38C162.63 28.17 162.60 27.90 162.21 27.84C161.16 27.69 160.77 27.75 160.77 26.91L160.77 26.85C160.77 22.71 160.80 22.17 160.80 21.66C160.80 21.15 160.80 20.64 160.74 20.13C160.44 16.41 157.83 15.81 156.48 15.81L156.42 15.81C153.84 15.84 152.43 17.61 152.31 17.61L152.28 17.61C152.25 17.61 152.19 17.58 152.19 17.49ZM163.86 19.53C163.86 21.00 164.76 22.50 167.19 23.19C168.15 23.46 170.79 23.76 170.79 25.74C170.79 26.94 169.71 27.75 168.36 27.75C166.62 27.75 165.24 26.61 164.94 25.98C164.52 25.14 165.00 24.12 164.25 24.12C163.80 24.12 163.71 24.27 163.71 25.05C163.71 25.47 163.74 26.04 163.74 26.85C163.74 27.30 163.80 27.54 164.10 27.87C164.97 28.89 166.86 29.37 168.24 29.37C171.21 29.37 172.80 27.24 172.80 25.32C172.80 24.84 172.68 23.85 171.90 22.95C170.79 21.66 169.38 21.57 167.85 21.15C165.63 20.52 165.48 19.41 165.48 18.99C165.48 18.03 166.35 17.40 167.37 17.40C168.36 17.40 169.44 18.03 169.83 18.57C170.25 19.17 170.16 20.04 170.79 20.04C171.03 20.04 171.48 19.95 171.48 19.56C171.48 19.44 171.09 17.46 170.91 16.41C170.88 16.26 170.79 15.84 170.43 15.84C170.07 15.84 169.95 16.14 169.68 16.14C169.53 16.14 169.08 15.99 168.18 15.99C165.48 15.99 163.86 17.73 163.86 19.53ZM174.27 17.85L175.23 17.85C175.41 17.85 175.44 17.97 175.44 18.12C175.44 18.78 175.32 23.43 175.32 24.75C175.32 25.08 175.32 25.38 175.35 25.71C175.56 28.53 177.18 29.37 178.38 29.37C180.03 29.37 181.50 27.87 182.55 26.67C182.61 26.58 182.76 26.40 182.76 26.16C182.76 25.89 182.55 25.62 182.22 25.62C181.56 25.62 180.39 27.42 178.95 27.42C177.69 27.42 177.42 26.25 177.42 25.20C177.42 24.48 177.42 23.79 177.45 18.18C177.45 17.97 177.54 17.91 177.75 17.91L181.26 17.91C181.53 17.91 181.68 17.88 181.80 17.76C181.95 17.58 182.07 17.07 182.07 16.89C182.07 16.32 181.56 16.32 181.29 16.32C181.20 16.32 181.14 16.29 181.05 16.29L178.35 16.29C177.99 16.29 177.75 16.20 177.75 15.69C177.75 15.27 177.78 14.01 177.78 13.59C177.78 13.20 177.57 13.11 177.39 13.11C177.06 13.11 176.88 13.50 176.79 13.65C175.17 16.41 173.67 16.95 173.67 17.46C173.67 17.82 174.00 17.85 174.27 17.85ZM187.41 17.49C187.35 17.49 187.32 17.43 187.32 17.34L187.32 16.14C187.32 15.87 187.29 15.54 186.96 15.54C186.87 15.54 186.78 15.60 186.69 15.63C183.57 17.16 183.54 17.10 183.54 17.25C183.57 17.37 183.63 17.43 183.66 17.46C185.07 18.48 185.31 18.45 185.31 19.05L185.31 27.00C185.31 27.45 185.19 27.63 184.77 27.72C183.96 27.93 183.42 27.75 183.42 28.47C183.42 28.77 183.60 28.98 183.90 28.98C183.99 28.98 185.28 28.80 186.96 28.80C188.58 28.80 189.90 28.98 189.99 28.98C190.38 28.98 190.41 28.62 190.41 28.38C190.41 27.69 190.02 27.81 188.22 27.66C187.50 27.60 187.47 27.09 187.47 26.76L187.47 26.64L187.47 19.44C187.47 19.23 187.47 19.08 187.59 18.90C187.77 18.63 188.97 17.67 189.93 17.67C190.92 17.67 190.95 18.42 191.70 18.42C192.21 18.42 192.60 18.03 192.93 17.82C193.17 17.61 193.71 17.28 193.74 16.77L193.74 16.74C193.74 15.90 192.36 15.42 191.40 15.42C191.07 15.42 190.80 15.45 190.53 15.54C189.72 15.84 187.53 17.49 187.41 17.49ZM204.57 27.81C204.60 27.81 204.66 27.81 204.66 27.93L204.66 28.62C204.66 28.92 204.72 29.22 205.08 29.22C205.20 29.22 205.32 29.16 205.41 29.10C207.99 27.69 208.41 28.38 208.41 27.48C208.41 27.30 208.38 27.21 208.17 27.12C206.85 26.49 206.67 26.58 206.67 26.22L206.67 16.83C206.67 16.53 206.64 16.23 206.22 16.23C205.83 16.23 205.47 16.26 202.53 16.35C202.29 16.38 202.11 16.47 202.11 16.86C202.11 17.16 202.26 17.28 202.56 17.34C204.09 17.61 204.54 17.58 204.54 18.42L204.54 25.80C204.54 26.16 204.48 26.19 204.03 26.70C203.49 27.24 202.62 27.78 201.48 27.78C199.89 27.78 198.78 26.70 198.30 25.77C197.76 24.69 197.76 23.58 197.76 22.68L197.76 16.53C197.76 16.32 197.70 16.17 197.46 16.17C197.16 16.17 196.83 16.20 194.34 16.35C194.04 16.38 194.01 16.56 194.01 16.77L194.01 16.86C194.01 17.37 194.40 17.25 194.94 17.49C195.75 17.79 195.75 18.06 195.75 18.33C195.75 18.81 195.72 22.20 195.72 23.16C195.72 23.79 195.75 24.39 195.81 24.99C196.17 27.75 197.97 29.34 200.40 29.34C202.89 29.34 204.42 27.81 204.57 27.81ZM215.22 29.34C217.47 29.34 219.21 28.11 220.17 26.79C220.26 26.67 220.35 26.49 220.35 26.31C220.35 26.01 220.11 25.80 219.84 25.80C219.15 25.80 218.52 27.42 216.18 27.42C213.42 27.42 211.44 24.93 211.44 22.14C211.44 19.62 213.03 17.52 214.86 17.52C216.60 17.52 217.11 19.32 218.49 19.32C219.12 19.32 219.69 18.87 219.69 18.18C219.69 17.04 218.04 15.96 215.88 15.96C212.04 15.96 209.46 18.81 209.46 22.89C209.46 26.58 211.77 29.34 215.22 29.34ZM221.58 17.85L222.54 17.85C222.72 17.85 222.75 17.97 222.75 18.12C222.75 18.78 222.63 23.43 222.63 24.75C222.63 25.08 222.63 25.38 222.66 25.71C222.87 28.53 224.49 29.37 225.69 29.37C227.34 29.37 228.81 27.87 229.86 26.67C229.92 26.58 230.07 26.40 230.07 26.16C230.07 25.89 229.86 25.62 229.53 25.62C228.87 25.62 227.70 27.42 226.26 27.42C225 27.42 224.73 26.25 224.73 25.20C224.73 24.48 224.73 23.79 224.76 18.18C224.76 17.97 224.85 17.91 225.06 17.91L228.57 17.91C228.84 17.91 228.99 17.88 229.11 17.76C229.26 17.58 229.38 17.07 229.38 16.89C229.38 16.32 228.87 16.32 228.60 16.32C228.51 16.32 228.45 16.29 228.36 16.29L225.66 16.29C225.30 16.29 225.06 16.20 225.06 15.69C225.06 15.27 225.09 14.01 225.09 13.59C225.09 13.20 224.88 13.11 224.70 13.11C224.37 13.11 224.19 13.50 224.10 13.65C222.48 16.41 220.98 16.95 220.98 17.46C220.98 17.82 221.31 17.85 221.58 17.85ZM233.49 10.26C233.49 11.07 234.12 11.67 234.90 11.67C235.68 11.67 236.37 11.04 236.37 10.23C236.37 9.48 235.71 8.85 234.93 8.85C234.15 8.85 233.49 9.48 233.49 10.26ZM233.19 25.17L233.19 26.58C233.19 27.12 233.13 27.54 232.38 27.66C231.03 27.84 230.91 27.78 230.91 28.47C230.91 28.77 231.06 28.98 231.36 28.98C231.45 28.98 232.62 28.80 234.12 28.80C235.59 28.80 236.79 28.98 236.88 28.98C237.21 28.98 237.24 28.56 237.24 28.32C237.24 27.81 236.88 27.84 235.89 27.69C235.23 27.60 235.20 27.51 235.20 23.85L235.20 22.86C235.20 19.20 235.38 16.29 235.38 16.05C235.38 15.69 235.14 15.57 234.96 15.57L234.93 15.57C234.78 15.57 234.75 15.63 231.63 17.13C231.30 17.28 230.82 17.40 230.82 17.76C230.82 18 231.03 18.09 231.18 18.15C233.10 18.93 233.22 18.90 233.22 19.38C233.22 19.95 233.19 21.69 233.19 25.17ZM238.29 22.68C238.29 26.37 240.84 29.37 244.65 29.37C248.01 29.37 251.04 26.97 251.04 22.68C251.04 18.66 248.34 15.84 244.77 15.84C241.41 15.84 238.29 18.51 238.29 22.68ZM244.74 27.90C242.28 27.90 240.63 25.65 240.63 22.53C240.63 18.51 243 17.25 244.56 17.25C246.84 17.25 249 19.59 249 22.80C249 25.47 247.29 27.90 244.74 27.90ZM255.90 17.49C255.90 17.46 255.93 17.37 255.93 17.31L255.93 16.14C255.93 15.90 255.84 15.69 255.57 15.69C255.45 15.69 255.36 15.75 255.27 15.81C252.48 17.31 252.42 17.28 252.42 17.52L252.42 17.55C252.42 17.67 252.51 17.76 252.60 17.85C253.95 18.87 253.95 18.81 253.95 19.53L253.95 26.70C253.95 27.21 253.92 27.60 253.17 27.72C252.24 27.87 252 27.84 252 28.44C252 28.86 252.30 28.98 252.48 28.98C252.57 28.98 253.68 28.80 255.12 28.80C256.59 28.80 257.82 29.01 257.91 29.01C258.18 29.01 258.30 28.77 258.30 28.47C258.30 27.81 257.94 27.87 256.68 27.66C256.05 27.57 256.02 27.15 256.02 26.82L256.02 26.73L256.02 19.62C256.02 19.50 256.02 19.35 256.05 19.23C256.17 18.69 257.40 17.28 259.14 17.28C259.83 17.28 261.48 17.55 262.14 19.08C262.50 19.98 262.53 21.78 262.53 22.32L262.53 26.97C262.53 27.48 262.44 27.63 262.05 27.69C260.85 27.90 260.49 27.84 260.49 28.38C260.49 28.68 260.55 28.98 260.91 28.98C260.97 28.98 262.05 28.80 263.37 28.80C264.87 28.80 265.62 28.98 265.89 28.98C266.07 28.98 266.34 28.89 266.34 28.38C266.34 28.17 266.31 27.90 265.92 27.84C264.87 27.69 264.48 27.75 264.48 26.91L264.48 26.85C264.48 22.71 264.51 22.17 264.51 21.66C264.51 21.15 264.51 20.64 264.45 20.13C264.15 16.41 261.54 15.81 260.19 15.81L260.13 15.81C257.55 15.84 256.14 17.61 256.02 17.61L255.99 17.61C255.96 17.61 255.90 17.58 255.90 17.49ZM267.57 19.53C267.57 21.00 268.47 22.50 270.90 23.19C271.86 23.46 274.50 23.76 274.50 25.74C274.50 26.94 273.42 27.75 272.07 27.75C270.33 27.75 268.95 26.61 268.65 25.98C268.23 25.14 268.71 24.12 267.96 24.12C267.51 24.12 267.42 24.27 267.42 25.05C267.42 25.47 267.45 26.04 267.45 26.85C267.45 27.30 267.51 27.54 267.81 27.87C268.68 28.89 270.57 29.37 271.95 29.37C274.92 29.37 276.51 27.24 276.51 25.32C276.51 24.84 276.39 23.85 275.61 22.95C274.50 21.66 273.09 21.57 271.56 21.15C269.34 20.52 269.19 19.41 269.19 18.99C269.19 18.03 270.06 17.40 271.08 17.40C272.07 17.40 273.15 18.03 273.54 18.57C273.96 19.17 273.87 20.04 274.50 20.04C274.74 20.04 275.19 19.95 275.19 19.56C275.19 19.44 274.80 17.46 274.62 16.41C274.59 16.26 274.50 15.84 274.14 15.84C273.78 15.84 273.66 16.14 273.39 16.14C273.24 16.14 272.79 15.99 271.89 15.99C269.19 15.99 267.57 17.73 267.57 19.53ZM285.27 28.98C285.36 28.98 286.53 28.80 288 28.80C289.44 28.80 290.61 28.98 290.70 28.98C291.06 28.98 291.18 28.68 291.18 28.32C291.18 27.63 290.85 27.81 289.47 27.69C288.90 27.66 288.87 27.27 288.87 26.97L288.87 26.88L288.87 18.27C288.87 18.06 288.96 18.03 289.14 18.03L291.96 18.03C292.68 18.03 292.74 17.37 292.74 17.10L292.74 17.07C292.74 16.59 292.44 16.47 292.08 16.47L289.14 16.47C288.87 16.47 288.84 16.38 288.84 15.99L288.84 15.72C288.84 12.21 289.80 9.21 291.93 9.21C292.86 9.21 293.58 9.93 294.42 9.93C295.23 9.93 295.68 9.33 295.68 8.76C295.68 8.13 295.14 7.20 293.52 7.20C291.69 7.20 289.23 8.43 288.03 10.47C286.92 12.42 286.77 15.06 286.74 16.23L286.74 16.26C286.74 16.62 286.71 16.50 285.21 16.56C284.82 16.56 284.58 16.77 284.58 17.46C284.58 18 285.03 18 285.21 18C286.65 18.03 286.80 17.94 286.80 18.30C286.80 24.12 286.74 26.16 286.68 26.91C286.65 27.27 286.68 27.57 286.23 27.63C285.12 27.81 284.82 27.75 284.82 28.23C284.82 28.56 284.88 28.98 285.27 28.98ZM293.67 22.68C293.67 26.37 296.22 29.37 300.03 29.37C303.39 29.37 306.42 26.97 306.42 22.68C306.42 18.66 303.72 15.84 300.15 15.84C296.79 15.84 293.67 18.51 293.67 22.68ZM300.12 27.90C297.66 27.90 296.01 25.65 296.01 22.53C296.01 18.51 298.38 17.25 299.94 17.25C302.22 17.25 304.38 19.59 304.38 22.80C304.38 25.47 302.67 27.90 300.12 27.90ZM311.40 17.49C311.34 17.49 311.31 17.43 311.31 17.34L311.31 16.14C311.31 15.87 311.28 15.54 310.95 15.54C310.86 15.54 310.77 15.60 310.68 15.63C307.56 17.16 307.53 17.10 307.53 17.25C307.56 17.37 307.62 17.43 307.65 17.46C309.06 18.48 309.30 18.45 309.30 19.05L309.30 27.00C309.30 27.45 309.18 27.63 308.76 27.72C307.95 27.93 307.41 27.75 307.41 28.47C307.41 28.77 307.59 28.98 307.89 28.98C307.98 28.98 309.27 28.80 310.95 28.80C312.57 28.80 313.89 28.98 313.98 28.98C314.37 28.98 314.40 28.62 314.40 28.38C314.40 27.69 314.01 27.81 312.21 27.66C311.49 27.60 311.46 27.09 311.46 26.76L311.46 26.64L311.46 19.44C311.46 19.23 311.46 19.08 311.58 18.90C311.76 18.63 312.96 17.67 313.92 17.67C314.91 17.67 314.94 18.42 315.69 18.42C316.20 18.42 316.59 18.03 316.92 17.82C317.16 17.61 317.70 17.28 317.73 16.77L317.73 16.74C317.73 15.90 316.35 15.42 315.39 15.42C315.06 15.42 314.79 15.45 314.52 15.54C313.71 15.84 311.52 17.49 311.40 17.49ZM339.57 13.86C339.57 16.77 336.57 18.72 332.16 18.72C331.14 18.72 331.05 18.69 331.05 18.36L331.05 9.81C331.05 9.45 331.23 9.36 332.88 9.36C337.14 9.36 339.57 11.37 339.57 13.86ZM327.36 8.31L326.61 8.31C326.16 8.31 325.95 8.52 325.95 8.97C325.95 9.72 326.37 9.75 326.67 9.75L327.75 9.75C328.38 9.75 328.41 10.17 328.41 10.53L328.41 26.58C328.41 27.06 328.26 27.30 327.57 27.39C326.01 27.54 325.71 27.42 325.71 28.26C325.71 28.59 325.83 28.98 326.31 28.98C326.46 28.98 328.23 28.80 330.48 28.80C332.67 28.80 334.47 28.98 334.62 28.98C335.10 28.98 335.19 28.62 335.19 28.26L335.19 28.23C335.19 27.33 334.80 27.51 331.95 27.39C331.17 27.33 330.99 27.00 330.99 26.34L330.99 20.25C330.99 19.95 331.08 19.77 331.38 19.77L332.28 19.77C336.00 19.77 337.89 19.17 339.03 18.54C340.68 17.67 342.06 15.99 342.09 13.74L342.09 13.71C342.09 12.24 341.43 10.80 340.35 9.81C338.91 8.52 336.99 8.01 334.50 8.01C332.34 8.01 330.21 8.31 327.36 8.31ZM345.21 35.49C346.08 35.49 346.71 34.74 347.43 33.63C349.62 30.30 351.45 26.10 352.80 22.83C354.90 17.61 354.54 17.61 355.17 17.52C356.13 17.40 356.34 17.43 356.34 16.95C356.34 16.62 356.34 16.35 355.98 16.35C355.77 16.35 355.08 16.44 353.70 16.44L353.67 16.44C352.26 16.44 351.54 16.35 351.33 16.35C350.97 16.35 350.76 16.56 350.76 16.89C350.76 17.34 351.06 17.43 351.33 17.46C352.32 17.55 352.77 17.43 352.77 18.15C352.77 19.14 351.87 21.48 350.31 25.20C350.25 25.26 350.19 25.50 350.01 25.50C349.86 25.50 349.80 25.38 349.80 25.32C347.76 21.48 346.53 18.21 346.53 17.94C346.53 17.61 346.77 17.55 346.98 17.52C347.88 17.43 348.09 17.49 348.09 16.83C348.09 16.59 348.03 16.35 347.70 16.35C347.46 16.35 346.74 16.44 345.33 16.44C343.92 16.44 343.20 16.35 342.99 16.35C342.66 16.35 342.57 16.56 342.57 16.86C342.57 17.85 343.23 17.22 343.71 17.85C343.77 17.94 344.82 19.89 345.36 20.91C347.82 25.83 348.69 27.69 348.69 28.35C348.69 29.19 347.46 31.08 346.68 31.80C345.57 32.85 344.04 33.21 344.04 34.41C344.04 35.01 344.55 35.49 345.21 35.49ZM357.69 17.85L358.65 17.85C358.83 17.85 358.86 17.97 358.86 18.12C358.86 18.78 358.74 23.43 358.74 24.75C358.74 25.08 358.74 25.38 358.77 25.71C358.98 28.53 360.60 29.37 361.80 29.37C363.45 29.37 364.92 27.87 365.97 26.67C366.03 26.58 366.18 26.40 366.18 26.16C366.18 25.89 365.97 25.62 365.64 25.62C364.98 25.62 363.81 27.42 362.37 27.42C361.11 27.42 360.84 26.25 360.84 25.20C360.84 24.48 360.84 23.79 360.87 18.18C360.87 17.97 360.96 17.91 361.17 17.91L364.68 17.91C364.95 17.91 365.10 17.88 365.22 17.76C365.37 17.58 365.49 17.07 365.49 16.89C365.49 16.32 364.98 16.32 364.71 16.32C364.62 16.32 364.56 16.29 364.47 16.29L361.77 16.29C361.41 16.29 361.17 16.20 361.17 15.69C361.17 15.27 361.20 14.01 361.20 13.59C361.20 13.20 360.99 13.11 360.81 13.11C360.48 13.11 360.30 13.50 360.21 13.65C358.59 16.41 357.09 16.95 357.09 17.46C357.09 17.82 357.42 17.85 357.69 17.85ZM375.27 28.56C375.27 28.77 375.33 28.98 375.60 28.98C375.69 28.98 376.86 28.80 378.30 28.80C379.80 28.80 380.94 28.98 381.03 28.98C381.27 28.98 381.42 28.86 381.42 28.32C381.42 27.90 381.15 27.81 380.91 27.78C380.16 27.69 379.80 27.66 379.80 26.82C379.68 21.21 379.53 20.28 378.93 18.87C378.24 17.28 376.89 16.14 374.91 16.14C372.87 16.14 371.55 17.25 371.37 17.25C371.31 17.25 371.22 17.22 371.22 17.04L371.25 7.80C371.25 7.32 370.98 7.23 370.80 7.23L370.77 7.23C370.56 7.23 370.53 7.29 367.32 9.15C367.26 9.18 366.84 9.36 366.84 9.72C366.84 10.50 368.82 10.23 368.97 10.98C369 11.16 369.09 15.90 369.09 18.33L369.09 18.45C369.09 21.21 369.03 23.97 368.94 26.70C368.91 27.12 368.91 27.60 368.22 27.72C367.38 27.90 367.11 27.87 367.11 28.38C367.11 28.65 367.11 28.98 367.47 28.98C367.56 28.98 368.76 28.80 370.29 28.80C371.76 28.80 372.96 28.98 373.05 28.98C373.32 28.98 373.38 28.62 373.38 28.35C373.38 27.27 371.37 28.23 371.13 26.94C371.07 26.73 371.07 19.71 371.07 19.53C371.07 19.38 371.07 19.26 371.10 19.14C371.25 18.54 372.42 17.67 373.71 17.67C374.67 17.67 375.54 18.15 376.14 18.75C376.89 19.56 377.58 20.73 377.58 25.05C377.58 27.33 377.58 27.57 376.98 27.66C375.66 27.84 375.27 27.72 375.27 28.35ZM382.53 22.68C382.53 26.37 385.08 29.37 388.89 29.37C392.25 29.37 395.28 26.97 395.28 22.68C395.28 18.66 392.58 15.84 389.01 15.84C385.65 15.84 382.53 18.51 382.53 22.68ZM388.98 27.90C386.52 27.90 384.87 25.65 384.87 22.53C384.87 18.51 387.24 17.25 388.80 17.25C391.08 17.25 393.24 19.59 393.24 22.80C393.24 25.47 391.53 27.90 388.98 27.90ZM400.14 17.49C400.14 17.46 400.17 17.37 400.17 17.31L400.17 16.14C400.17 15.90 400.08 15.69 399.81 15.69C399.69 15.69 399.60 15.75 399.51 15.81C396.72 17.31 396.66 17.28 396.66 17.52L396.66 17.55C396.66 17.67 396.75 17.76 396.84 17.85C398.19 18.87 398.19 18.81 398.19 19.53L398.19 26.70C398.19 27.21 398.16 27.60 397.41 27.72C396.48 27.87 396.24 27.84 396.24 28.44C396.24 28.86 396.54 28.98 396.72 28.98C396.81 28.98 397.92 28.80 399.36 28.80C400.83 28.80 402.06 29.01 402.15 29.01C402.42 29.01 402.54 28.77 402.54 28.47C402.54 27.81 402.18 27.87 400.92 27.66C400.29 27.57 400.26 27.15 400.26 26.82L400.26 26.73L400.26 19.62C400.26 19.50 400.26 19.35 400.29 19.23C400.41 18.69 401.64 17.28 403.38 17.28C404.07 17.28 405.72 17.55 406.38 19.08C406.74 19.98 406.77 21.78 406.77 22.32L406.77 26.97C406.77 27.48 406.68 27.63 406.29 27.69C405.09 27.90 404.73 27.84 404.73 28.38C404.73 28.68 404.79 28.98 405.15 28.98C405.21 28.98 406.29 28.80 407.61 28.80C409.11 28.80 409.86 28.98 410.13 28.98C410.31 28.98 410.58 28.89 410.58 28.38C410.58 28.17 410.55 27.90 410.16 27.84C409.11 27.69 408.72 27.75 408.72 26.91L408.72 26.85C408.72 22.71 408.75 22.17 408.75 21.66C408.75 21.15 408.75 20.64 408.69 20.13C408.39 16.41 405.78 15.81 404.43 15.81L404.37 15.81C401.79 15.84 400.38 17.61 400.26 17.61L400.23 17.61C400.20 17.61 400.14 17.58 400.14 17.49ZM414.45 15.51C412.62 15.51 411.66 17.04 411.66 18.63C411.66 19.59 411.87 19.86 412.20 19.86C412.32 19.86 412.74 19.77 412.74 19.47C412.74 19.41 412.71 19.11 412.71 18.84C412.71 18.30 412.86 17.70 414.27 17.70C416.49 17.70 417.03 19.56 417.03 20.61C417.03 22.08 416.10 23.31 415.11 24.27C414.24 25.11 414.06 25.05 414.06 25.35C414.06 25.50 414.21 25.74 414.57 25.74C414.81 25.74 415.05 25.68 415.77 25.68C418.71 25.68 419.43 27.24 419.43 29.10C419.43 30.93 418.74 32.97 416.70 32.97C414.27 32.97 414.57 30.87 413.04 30.87C412.38 30.87 411.72 31.35 411.72 32.07C411.72 32.76 412.77 34.26 415.17 34.26C416.79 34.26 418.71 33.69 419.76 32.31C420.84 30.93 421.05 28.68 421.05 27.75C421.05 25.71 420.12 24.78 419.34 24.33C418.08 23.58 417.30 23.76 417.30 23.40C417.30 23.25 419.04 20.82 419.04 19.02C419.04 16.50 415.65 15.51 414.45 15.51ZM430.53 8.13C429.84 8.13 429.66 8.49 429.66 8.73C429.66 9.39 430.68 9.57 431.04 9.84C431.94 10.47 431.55 11.97 441.18 28.80C441.27 28.95 441.48 29.40 441.96 29.40C442.41 29.40 442.62 28.95 442.71 28.80C449.13 16.98 450.69 11.28 451.59 10.29C452.55 9.27 453.87 9.96 453.87 8.94C453.87 8.43 453.69 8.13 453.21 8.13C452.91 8.13 452.01 8.22 450.15 8.22C448.32 8.22 447.39 8.13 447.09 8.13C446.58 8.13 446.43 8.52 446.43 8.88C446.43 9.90 447.63 9.42 448.38 9.69C448.65 9.78 449.04 10.05 449.04 10.59C449.04 10.83 448.92 11.07 448.86 11.25C447.15 15.84 445.14 20.19 442.86 24.33C442.83 24.39 442.74 24.57 442.53 24.57C442.41 24.57 442.32 24.51 442.26 24.45C442.05 24.21 438.42 17.97 435.30 11.01C435.24 10.89 435.12 10.65 435.12 10.41C435.12 9.78 435.66 9.66 435.93 9.63C437.28 9.42 437.61 9.45 437.61 8.70C437.61 8.43 437.49 8.13 437.07 8.13C436.77 8.13 435.81 8.22 433.89 8.22C431.88 8.22 430.86 8.13 430.53 8.13ZM457.20 10.26C457.20 11.07 457.83 11.67 458.61 11.67C459.39 11.67 460.08 11.04 460.08 10.23C460.08 9.48 459.42 8.85 458.64 8.85C457.86 8.85 457.20 9.48 457.20 10.26ZM456.90 25.17L456.90 26.58C456.90 27.12 456.84 27.54 456.09 27.66C454.74 27.84 454.62 27.78 454.62 28.47C454.62 28.77 454.77 28.98 455.07 28.98C455.16 28.98 456.33 28.80 457.83 28.80C459.30 28.80 460.50 28.98 460.59 28.98C460.92 28.98 460.95 28.56 460.95 28.32C460.95 27.81 460.59 27.84 459.60 27.69C458.94 27.60 458.91 27.51 458.91 23.85L458.91 22.86C458.91 19.20 459.09 16.29 459.09 16.05C459.09 15.69 458.85 15.57 458.67 15.57L458.64 15.57C458.49 15.57 458.46 15.63 455.34 17.13C455.01 17.28 454.53 17.40 454.53 17.76C454.53 18 454.74 18.09 454.89 18.15C456.81 18.93 456.93 18.90 456.93 19.38C456.93 19.95 456.90 21.69 456.90 25.17ZM465.72 17.49C465.66 17.49 465.63 17.43 465.63 17.34L465.63 16.14C465.63 15.87 465.60 15.54 465.27 15.54C465.18 15.54 465.09 15.60 465 15.63C461.88 17.16 461.85 17.10 461.85 17.25C461.88 17.37 461.94 17.43 461.97 17.46C463.38 18.48 463.62 18.45 463.62 19.05L463.62 27.00C463.62 27.45 463.50 27.63 463.08 27.72C462.27 27.93 461.73 27.75 461.73 28.47C461.73 28.77 461.91 28.98 462.21 28.98C462.30 28.98 463.59 28.80 465.27 28.80C466.89 28.80 468.21 28.98 468.30 28.98C468.69 28.98 468.72 28.62 468.72 28.38C468.72 27.69 468.33 27.81 466.53 27.66C465.81 27.60 465.78 27.09 465.78 26.76L465.78 26.64L465.78 19.44C465.78 19.23 465.78 19.08 465.90 18.90C466.08 18.63 467.28 17.67 468.24 17.67C469.23 17.67 469.26 18.42 470.01 18.42C470.52 18.42 470.91 18.03 471.24 17.82C471.48 17.61 472.02 17.28 472.05 16.77L472.05 16.74C472.05 15.90 470.67 15.42 469.71 15.42C469.38 15.42 469.11 15.45 468.84 15.54C468.03 15.84 465.84 17.49 465.72 17.49ZM473.31 17.85L474.27 17.85C474.45 17.85 474.48 17.97 474.48 18.12C474.48 18.78 474.36 23.43 474.36 24.75C474.36 25.08 474.36 25.38 474.39 25.71C474.60 28.53 476.22 29.37 477.42 29.37C479.07 29.37 480.54 27.87 481.59 26.67C481.65 26.58 481.80 26.40 481.80 26.16C481.80 25.89 481.59 25.62 481.26 25.62C480.60 25.62 479.43 27.42 477.99 27.42C476.73 27.42 476.46 26.25 476.46 25.20C476.46 24.48 476.46 23.79 476.49 18.18C476.49 17.97 476.58 17.91 476.79 17.91L480.30 17.91C480.57 17.91 480.72 17.88 480.84 17.76C480.99 17.58 481.11 17.07 481.11 16.89C481.11 16.32 480.60 16.32 480.33 16.32C480.24 16.32 480.18 16.29 480.09 16.29L477.39 16.29C477.03 16.29 476.79 16.20 476.79 15.69C476.79 15.27 476.82 14.01 476.82 13.59C476.82 13.20 476.61 13.11 476.43 13.11C476.10 13.11 475.92 13.50 475.83 13.65C474.21 16.41 472.71 16.95 472.71 17.46C472.71 17.82 473.04 17.85 473.31 17.85ZM492.87 27.81C492.90 27.81 492.96 27.81 492.96 27.93L492.96 28.62C492.96 28.92 493.02 29.22 493.38 29.22C493.50 29.22 493.62 29.16 493.71 29.10C496.29 27.69 496.71 28.38 496.71 27.48C496.71 27.30 496.68 27.21 496.47 27.12C495.15 26.49 494.97 26.58 494.97 26.22L494.97 16.83C494.97 16.53 494.94 16.23 494.52 16.23C494.13 16.23 493.77 16.26 490.83 16.35C490.59 16.38 490.41 16.47 490.41 16.86C490.41 17.16 490.56 17.28 490.86 17.34C492.39 17.61 492.84 17.58 492.84 18.42L492.84 25.80C492.84 26.16 492.78 26.19 492.33 26.70C491.79 27.24 490.92 27.78 489.78 27.78C488.19 27.78 487.08 26.70 486.60 25.77C486.06 24.69 486.06 23.58 486.06 22.68L486.06 16.53C486.06 16.32 486 16.17 485.76 16.17C485.46 16.17 485.13 16.20 482.64 16.35C482.34 16.38 482.31 16.56 482.31 16.77L482.31 16.86C482.31 17.37 482.70 17.25 483.24 17.49C484.05 17.79 484.05 18.06 484.05 18.33C484.05 18.81 484.02 22.20 484.02 23.16C484.02 23.79 484.05 24.39 484.11 24.99C484.47 27.75 486.27 29.34 488.70 29.34C491.19 29.34 492.72 27.81 492.87 27.81ZM498.12 18.45C498.12 19.14 498.75 19.53 499.32 19.53C499.71 19.53 499.89 19.32 499.98 19.20C500.04 19.08 500.85 17.19 502.56 17.19C503.34 17.19 503.94 17.61 504.30 18C504.90 18.69 505.02 19.44 505.02 20.40L505.02 21.48C505.02 21.69 504.99 21.84 504.78 21.90C504.72 21.93 501.12 22.05 499.50 23.34C498.78 23.91 498.24 24.87 498.24 26.01L498.24 26.04C498.24 27.87 499.59 29.40 501.66 29.40C502.77 29.40 503.76 29.01 504.45 28.56C505.20 28.05 505.11 27.90 505.26 27.90C505.29 27.90 505.29 27.93 505.32 27.93C505.38 27.96 506.10 29.16 507.45 29.16C509.01 29.16 509.76 27.48 509.76 26.79C509.76 26.52 509.61 26.40 509.49 26.40C509.04 26.40 509.10 27.39 508.17 27.39C507.87 27.39 507.15 27.24 507.15 26.07L507.15 20.16C507.15 19.80 507.12 19.44 507.09 19.08C506.79 16.14 503.88 15.78 502.74 15.78C500.25 15.78 498.12 17.37 498.12 18.45ZM502.38 27.75C501.99 27.75 501.45 27.69 501.09 27.36C500.61 26.94 500.46 26.19 500.46 25.71C500.46 24.96 500.79 24.42 501.18 24.09C502.17 23.16 504.21 23.01 504.75 23.01C505.02 23.01 505.05 23.16 505.05 23.88L505.05 25.11L505.05 25.83C505.05 26.10 505.02 26.31 504.87 26.52C504.72 26.73 503.85 27.75 502.38 27.75ZM516.78 28.38C516.78 27.99 516.63 27.84 516.27 27.78C515.07 27.57 514.74 27.63 514.74 26.67L514.74 7.68C514.74 7.41 514.68 7.11 514.32 7.11C514.17 7.11 514.05 7.17 513.96 7.23C510.33 9.12 510.27 9.06 510.27 9.30L510.27 9.33C510.27 9.66 510.66 9.78 511.86 10.50C512.37 10.80 512.55 10.80 512.55 11.25L512.55 26.52C512.55 27.12 512.49 27.57 511.71 27.66C510.69 27.78 510.48 27.75 510.48 28.32L510.48 28.41C510.48 28.62 510.51 28.95 510.90 28.95C510.99 28.95 512.16 28.80 513.60 28.80C515.10 28.80 516.33 28.98 516.42 28.98C516.72 28.98 516.78 28.74 516.78 28.38ZM537.69 13.41C536.97 13.41 536.88 13.77 536.88 14.07L536.88 15.00C536.88 15.96 536.25 15.99 535.74 15.99L531.15 15.99C530.58 15.99 530.55 15.63 530.55 15.33L530.55 10.80C530.55 10.23 530.61 9.66 531.48 9.66L537.12 9.66C538.05 9.66 537.96 9.78 539.46 12.45C539.61 12.66 539.79 12.99 540.30 12.99C540.81 12.99 540.93 12.72 540.93 12.54C540.93 12.39 540.33 9.90 540.06 8.55C539.97 8.25 539.82 8.07 539.40 8.07L525.60 8.07C525.33 8.07 525.03 8.13 525.03 8.73C525.03 9.60 525.84 9.39 527.01 9.57C527.67 9.69 527.82 9.72 527.82 10.17L527.82 25.80C527.82 26.46 527.73 26.76 527.16 26.97C525.18 27.72 524.88 27.72 524.88 28.26C524.88 28.41 525.03 29.16 525.60 29.16C526.14 29.16 527.07 28.80 529.32 28.80L539.64 28.80C540.27 28.80 540.45 28.65 540.54 28.20C541.44 24.18 541.47 24.12 541.47 23.94L541.47 23.91C541.47 23.40 541.14 23.22 540.93 23.22C540.84 23.22 540.75 23.25 540.63 23.31C540.15 23.61 539.10 26.10 538.56 26.52C537.96 26.97 535.20 27.15 534.24 27.15C533.31 27.15 532.38 27.09 531.45 26.94C530.58 26.82 530.49 26.34 530.49 25.80L530.49 18.93C530.49 17.79 531.27 17.73 531.96 17.73L536.10 17.73C536.52 17.73 536.88 17.79 536.88 18.39L536.88 20.01C536.88 20.28 536.94 20.67 537.69 20.67C538.47 20.67 538.53 20.13 538.53 19.80L538.53 14.28C538.53 13.95 538.47 13.41 537.69 13.41ZM546.18 17.49C546.18 17.46 546.21 17.37 546.21 17.31L546.21 16.14C546.21 15.90 546.12 15.69 545.85 15.69C545.73 15.69 545.64 15.75 545.55 15.81C542.76 17.31 542.70 17.28 542.70 17.52L542.70 17.55C542.70 17.67 542.79 17.76 542.88 17.85C544.23 18.87 544.23 18.81 544.23 19.53L544.23 26.70C544.23 27.21 544.20 27.60 543.45 27.72C542.52 27.87 542.28 27.84 542.28 28.44C542.28 28.86 542.58 28.98 542.76 28.98C542.85 28.98 543.96 28.80 545.40 28.80C546.87 28.80 548.10 29.01 548.19 29.01C548.46 29.01 548.58 28.77 548.58 28.47C548.58 27.81 548.22 27.87 546.96 27.66C546.33 27.57 546.30 27.15 546.30 26.82L546.30 26.73L546.30 19.62C546.30 19.50 546.30 19.35 546.33 19.23C546.45 18.69 547.68 17.28 549.42 17.28C550.11 17.28 551.76 17.55 552.42 19.08C552.78 19.98 552.81 21.78 552.81 22.32L552.81 26.97C552.81 27.48 552.72 27.63 552.33 27.69C551.13 27.90 550.77 27.84 550.77 28.38C550.77 28.68 550.83 28.98 551.19 28.98C551.25 28.98 552.33 28.80 553.65 28.80C555.15 28.80 555.90 28.98 556.17 28.98C556.35 28.98 556.62 28.89 556.62 28.38C556.62 28.17 556.59 27.90 556.20 27.84C555.15 27.69 554.76 27.75 554.76 26.91L554.76 26.85C554.76 22.71 554.79 22.17 554.79 21.66C554.79 21.15 554.79 20.64 554.73 20.13C554.43 16.41 551.82 15.81 550.47 15.81L550.41 15.81C547.83 15.84 546.42 17.61 546.30 17.61L546.27 17.61C546.24 17.61 546.18 17.58 546.18 17.49ZM565.86 16.92C565.86 17.40 566.16 17.40 566.31 17.43C567.45 17.52 568.08 17.46 568.08 18.03C568.08 18.51 567.48 22.29 565.20 26.28C565.20 26.31 565.14 26.43 565.05 26.43C564.90 26.43 564.81 26.22 564.78 26.19C562.65 22.53 561.21 18.51 561.21 18.12C561.21 17.82 561.45 17.61 561.81 17.58C562.83 17.40 563.49 17.70 563.49 16.95C563.49 16.62 563.43 16.35 563.07 16.35C562.77 16.35 561.93 16.44 560.19 16.44C558.48 16.44 557.64 16.35 557.34 16.35C557.10 16.35 556.98 16.50 556.98 16.74C556.98 17.91 557.79 17.16 558.39 17.91C558.81 18.45 559.89 21.81 563.73 28.62C564.00 29.13 564.27 29.55 564.72 29.55C564.96 29.55 565.17 29.43 565.29 29.28C565.65 28.89 568.08 24.09 569.64 18.42C569.73 18.06 569.73 18 569.82 17.82C570.21 17.16 571.47 17.91 571.47 16.92C571.47 16.62 571.38 16.35 571.02 16.35C570.78 16.35 570.06 16.44 568.62 16.44C567.18 16.44 566.46 16.35 566.22 16.35C565.95 16.35 565.86 16.56 565.86 16.77ZM574.74 10.26C574.74 11.07 575.37 11.67 576.15 11.67C576.93 11.67 577.62 11.04 577.62 10.23C577.62 9.48 576.96 8.85 576.18 8.85C575.40 8.85 574.74 9.48 574.74 10.26ZM574.44 25.17L574.44 26.58C574.44 27.12 574.38 27.54 573.63 27.66C572.28 27.84 572.16 27.78 572.16 28.47C572.16 28.77 572.31 28.98 572.61 28.98C572.70 28.98 573.87 28.80 575.37 28.80C576.84 28.80 578.04 28.98 578.13 28.98C578.46 28.98 578.49 28.56 578.49 28.32C578.49 27.81 578.13 27.84 577.14 27.69C576.48 27.60 576.45 27.51 576.45 23.85L576.45 22.86C576.45 19.20 576.63 16.29 576.63 16.05C576.63 15.69 576.39 15.57 576.21 15.57L576.18 15.57C576.03 15.57 576.00 15.63 572.88 17.13C572.55 17.28 572.07 17.40 572.07 17.76C572.07 18 572.28 18.09 572.43 18.15C574.35 18.93 574.47 18.90 574.47 19.38C574.47 19.95 574.44 21.69 574.44 25.17ZM583.26 17.49C583.20 17.49 583.17 17.43 583.17 17.34L583.17 16.14C583.17 15.87 583.14 15.54 582.81 15.54C582.72 15.54 582.63 15.60 582.54 15.63C579.42 17.16 579.39 17.10 579.39 17.25C579.42 17.37 579.48 17.43 579.51 17.46C580.92 18.48 581.16 18.45 581.16 19.05L581.16 27.00C581.16 27.45 581.04 27.63 580.62 27.72C579.81 27.93 579.27 27.75 579.27 28.47C579.27 28.77 579.45 28.98 579.75 28.98C579.84 28.98 581.13 28.80 582.81 28.80C584.43 28.80 585.75 28.98 585.84 28.98C586.23 28.98 586.26 28.62 586.26 28.38C586.26 27.69 585.87 27.81 584.07 27.66C583.35 27.60 583.32 27.09 583.32 26.76L583.32 26.64L583.32 19.44C583.32 19.23 583.32 19.08 583.44 18.90C583.62 18.63 584.82 17.67 585.78 17.67C586.77 17.67 586.80 18.42 587.55 18.42C588.06 18.42 588.45 18.03 588.78 17.82C589.02 17.61 589.56 17.28 589.59 16.77L589.59 16.74C589.59 15.90 588.21 15.42 587.25 15.42C586.92 15.42 586.65 15.45 586.38 15.54C585.57 15.84 583.38 17.49 583.26 17.49ZM590.28 22.68C590.28 26.37 592.83 29.37 596.64 29.37C600.00 29.37 603.03 26.97 603.03 22.68C603.03 18.66 600.33 15.84 596.76 15.84C593.40 15.84 590.28 18.51 590.28 22.68ZM596.73 27.90C594.27 27.90 592.62 25.65 592.62 22.53C592.62 18.51 594.99 17.25 596.55 17.25C598.83 17.25 600.99 19.59 600.99 22.80C600.99 25.47 599.28 27.90 596.73 27.90ZM607.89 17.49C607.89 17.46 607.92 17.37 607.92 17.31L607.92 16.14C607.92 15.90 607.83 15.69 607.56 15.69C607.44 15.69 607.35 15.75 607.26 15.81C604.47 17.31 604.41 17.28 604.41 17.52L604.41 17.55C604.41 17.67 604.50 17.76 604.59 17.85C605.94 18.87 605.94 18.81 605.94 19.53L605.94 26.70C605.94 27.21 605.91 27.60 605.16 27.72C604.23 27.87 603.99 27.84 603.99 28.44C603.99 28.86 604.29 28.98 604.47 28.98C604.56 28.98 605.67 28.80 607.11 28.80C608.58 28.80 609.81 29.01 609.90 29.01C610.17 29.01 610.29 28.77 610.29 28.47C610.29 27.81 609.93 27.87 608.67 27.66C608.04 27.57 608.01 27.15 608.01 26.82L608.01 26.73L608.01 19.62C608.01 19.50 608.01 19.35 608.04 19.23C608.16 18.69 609.39 17.28 611.13 17.28C611.82 17.28 613.47 17.55 614.13 19.08C614.49 19.98 614.52 21.78 614.52 22.32L614.52 26.97C614.52 27.48 614.43 27.63 614.04 27.69C612.84 27.90 612.48 27.84 612.48 28.38C612.48 28.68 612.54 28.98 612.90 28.98C612.96 28.98 614.04 28.80 615.36 28.80C616.86 28.80 617.61 28.98 617.88 28.98C618.06 28.98 618.33 28.89 618.33 28.38C618.33 28.17 618.30 27.90 617.91 27.84C616.86 27.69 616.47 27.75 616.47 26.91L616.47 26.85C616.47 22.71 616.50 22.17 616.50 21.66C616.50 21.15 616.50 20.64 616.44 20.13C616.14 16.41 613.53 15.81 612.18 15.81L612.12 15.81C609.54 15.84 608.13 17.61 608.01 17.61L607.98 17.61C607.95 17.61 607.89 17.58 607.89 17.49ZM622.89 17.46C622.80 17.46 622.77 17.37 622.77 17.28L622.77 16.14C622.77 15.99 622.74 15.78 622.50 15.78C622.32 15.78 622.26 15.87 621.93 16.05C619.50 17.61 619.50 17.52 619.50 17.79C619.50 17.97 619.68 18.09 619.77 18.15C620.88 18.99 620.97 18.96 620.97 19.56L620.97 27.00C620.85 28.20 619.29 27.39 619.29 28.32C619.29 28.62 619.35 28.92 619.71 28.92C619.92 28.92 620.58 28.80 621.90 28.80C623.28 28.80 624.36 28.98 624.45 28.98C624.72 28.98 624.84 28.77 624.84 28.50C624.84 28.20 624.84 27.93 624.42 27.87C623.10 27.66 622.83 27.72 622.83 26.85L622.83 19.62C622.83 19.17 622.89 18.99 622.95 18.84C623.13 18.51 623.91 17.67 625.23 17.67C626.07 17.67 626.82 18 627.33 18.39C628.17 19.02 628.29 20.01 628.29 21.00L628.29 26.55C628.29 27.27 628.17 27.57 627.51 27.69C626.25 27.90 625.89 27.84 625.89 28.32C625.89 28.71 625.95 28.98 626.31 28.98C626.37 28.98 627.60 28.80 629.10 28.80C630.60 28.80 631.80 28.98 631.89 28.98C632.22 28.98 632.28 28.62 632.28 28.35C632.28 28.02 632.10 27.84 631.71 27.78C630.48 27.63 630.24 27.69 630.24 27.12L630.24 27.09C630.24 27.00 630.27 26.94 630.27 26.85L630.27 21.06C630.27 19.77 630.09 19.08 630.09 19.05C630.09 18.60 631.50 17.67 632.82 17.67C633.75 17.67 634.38 18.09 634.68 18.33C635.82 19.32 635.91 21.15 635.91 22.71L635.91 26.88C635.91 27.30 635.91 27.60 635.31 27.69C634.11 27.93 633.90 27.87 633.90 28.47C633.90 28.86 634.20 28.98 634.38 28.98C634.62 28.98 635.40 28.80 636.93 28.80C638.43 28.80 639.21 28.98 639.45 28.98C639.84 28.98 639.90 28.65 639.90 28.38C639.90 28.17 639.87 27.90 639.48 27.84C638.34 27.60 638.04 27.69 638.04 26.73L638.04 22.92C638.04 21.72 638.04 20.55 637.71 19.41C637.02 16.95 635.19 16.14 633.66 16.14C633.09 16.14 632.04 16.26 630.75 17.01C629.61 17.67 629.73 17.82 629.49 17.82C629.43 17.82 629.40 17.82 629.37 17.79C629.31 17.76 628.08 16.14 626.13 16.14C624.33 16.14 623.04 17.46 622.89 17.46ZM640.98 22.62C640.98 27.75 644.31 29.37 646.77 29.37C648.90 29.37 650.85 28.29 652.08 26.70C652.23 26.52 652.29 26.34 652.29 26.22C652.29 25.95 652.08 25.77 651.81 25.77C651.51 25.77 651.27 26.04 651.12 26.19C650.19 27.09 648.87 27.66 647.55 27.66C643.77 27.66 643.11 23.67 643.11 23.31C643.11 23.04 643.29 23.07 649.50 20.94C650.37 20.64 651.93 20.34 651.93 19.44L651.93 19.41C651.93 19.14 651.81 18.90 651.69 18.75C650.58 17.22 648.60 15.87 646.53 15.87C643.53 15.87 640.98 18.42 640.98 22.62ZM649.02 19.50C649.02 19.62 648.93 19.77 648.75 19.86C648.69 19.89 643.23 22.02 643.14 22.02C643.08 22.02 642.99 21.99 642.99 21.81C642.99 19.14 644.13 17.52 645.87 17.52C647.55 17.52 649.02 19.14 649.02 19.50ZM656.82 17.49C656.82 17.46 656.85 17.37 656.85 17.31L656.85 16.14C656.85 15.90 656.76 15.69 656.49 15.69C656.37 15.69 656.28 15.75 656.19 15.81C653.40 17.31 653.34 17.28 653.34 17.52L653.34 17.55C653.34 17.67 653.43 17.76 653.52 17.85C654.87 18.87 654.87 18.81 654.87 19.53L654.87 26.70C654.87 27.21 654.84 27.60 654.09 27.72C653.16 27.87 652.92 27.84 652.92 28.44C652.92 28.86 653.22 28.98 653.40 28.98C653.49 28.98 654.60 28.80 656.04 28.80C657.51 28.80 658.74 29.01 658.83 29.01C659.10 29.01 659.22 28.77 659.22 28.47C659.22 27.81 658.86 27.87 657.60 27.66C656.97 27.57 656.94 27.15 656.94 26.82L656.94 26.73L656.94 19.62C656.94 19.50 656.94 19.35 656.97 19.23C657.09 18.69 658.32 17.28 660.06 17.28C660.75 17.28 662.40 17.55 663.06 19.08C663.42 19.98 663.45 21.78 663.45 22.32L663.45 26.97C663.45 27.48 663.36 27.63 662.97 27.69C661.77 27.90 661.41 27.84 661.41 28.38C661.41 28.68 661.47 28.98 661.83 28.98C661.89 28.98 662.97 28.80 664.29 28.80C665.79 28.80 666.54 28.98 666.81 28.98C666.99 28.98 667.26 28.89 667.26 28.38C667.26 28.17 667.23 27.90 666.84 27.84C665.79 27.69 665.40 27.75 665.40 26.91L665.40 26.85C665.40 22.71 665.43 22.17 665.43 21.66C665.43 21.15 665.43 20.64 665.37 20.13C665.07 16.41 662.46 15.81 661.11 15.81L661.05 15.81C658.47 15.84 657.06 17.61 656.94 17.61L656.91 17.61C656.88 17.61 656.82 17.58 656.82 17.49ZM668.76 17.85L669.72 17.85C669.90 17.85 669.93 17.97 669.93 18.12C669.93 18.78 669.81 23.43 669.81 24.75C669.81 25.08 669.81 25.38 669.84 25.71C670.05 28.53 671.67 29.37 672.87 29.37C674.52 29.37 675.99 27.87 677.04 26.67C677.10 26.58 677.25 26.40 677.25 26.16C677.25 25.89 677.04 25.62 676.71 25.62C676.05 25.62 674.88 27.42 673.44 27.42C672.18 27.42 671.91 26.25 671.91 25.20C671.91 24.48 671.91 23.79 671.94 18.18C671.94 17.97 672.03 17.91 672.24 17.91L675.75 17.91C676.02 17.91 676.17 17.88 676.29 17.76C676.44 17.58 676.56 17.07 676.56 16.89C676.56 16.32 676.05 16.32 675.78 16.32C675.69 16.32 675.63 16.29 675.54 16.29L672.84 16.29C672.48 16.29 672.24 16.20 672.24 15.69C672.24 15.27 672.27 14.01 672.27 13.59C672.27 13.20 672.06 13.11 671.88 13.11C671.55 13.11 671.37 13.50 671.28 13.65C669.66 16.41 668.16 16.95 668.16 17.46C668.16 17.82 668.49 17.85 668.76 17.85ZM678.48 19.53C678.48 21.00 679.38 22.50 681.81 23.19C682.77 23.46 685.41 23.76 685.41 25.74C685.41 26.94 684.33 27.75 682.98 27.75C681.24 27.75 679.86 26.61 679.56 25.98C679.14 25.14 679.62 24.12 678.87 24.12C678.42 24.12 678.33 24.27 678.33 25.05C678.33 25.47 678.36 26.04 678.36 26.85C678.36 27.30 678.42 27.54 678.72 27.87C679.59 28.89 681.48 29.37 682.86 29.37C685.83 29.37 687.42 27.24 687.42 25.32C687.42 24.84 687.30 23.85 686.52 22.95C685.41 21.66 684.00 21.57 682.47 21.15C680.25 20.52 680.10 19.41 680.10 18.99C680.10 18.03 680.97 17.40 681.99 17.40C682.98 17.40 684.06 18.03 684.45 18.57C684.87 19.17 684.78 20.04 685.41 20.04C685.65 20.04 686.10 19.95 686.10 19.56C686.10 19.44 685.71 17.46 685.53 16.41C685.50 16.26 685.41 15.84 685.05 15.84C684.69 15.84 684.57 16.14 684.30 16.14C684.15 16.14 683.70 15.99 682.80 15.99C680.10 15.99 678.48 17.73 678.48 19.53ZM691.41 16.47C690.48 16.47 689.64 17.19 689.64 18.21C689.64 19.26 690.48 20.01 691.41 20.01C692.43 20.01 693.21 19.17 693.21 18.24C693.21 17.25 692.37 16.47 691.41 16.47ZM691.41 25.77C690.48 25.77 689.64 26.46 689.64 27.51C689.64 28.56 690.48 29.31 691.41 29.31C692.43 29.31 693.21 28.47 693.21 27.54C693.21 26.55 692.37 25.77 691.41 25.77Z"></path></svg>